<?xml version="1.0" standalone="no"?>
<!DOCTYPE svg PUBLIC "-//W3C//DTD SVG 20010904//EN"
 "http://www.w3.org/TR/2001/REC-SVG-20010904/DTD/svg10.dtd">
<svg version="1.0" xmlns="http://www.w3.org/2000/svg"
 width="700.000000pt" height="700.000000pt" viewBox="0 0 700.000000 700.000000"
 preserveAspectRatio="xMidYMid meet">
<metadata>
Created by potrace 1.14, written by Peter Selinger 2001-2017
</metadata>
<g transform="translate(0.000000,700.000000) scale(0.100000,-0.100000)"
fill="#000000" stroke="none">
<path d="M5150 6269 c-907 -274 -1582 -645 -2120 -1166 -696 -674 -1051 -1481
-1086 -2475 -7 -183 -8 -189 -20 -140 -20 79 -70 200 -116 282 l-42 75 -9 -35
c-5 -19 -7 -116 -4 -215 4 -145 10 -201 30 -285 27 -113 79 -281 125 -400 l29
-74 28 119 c123 531 348 1133 624 1670 509 989 1095 1701 1761 2142 118 78
130 86 130 80 0 -2 -50 -39 -110 -82 -265 -187 -587 -488 -800 -745 -593 -715
-1064 -1574 -1364 -2487 -205 -626 -351 -1421 -317 -1731 8 -79 15 -102 26
-90 16 15 50 197 90 479 54 378 71 473 86 478 30 10 142 116 218 206 169 203
354 502 801 1300 529 945 784 1353 1057 1692 42 52 74 96 72 98 -8 7 -217 -15
-309 -34 -52 -10 -96 -18 -98 -16 -7 6 182 71 296 101 74 19 151 43 172 54 57
29 117 103 242 296 370 572 440 668 606 832 51 50 88 92 80 91 -7 0 -42 -10
-78 -20z"/>
</g>
</svg>
