<svg xmlns="http://www.w3.org/2000/svg" xmlns:xlink="http://www.w3.org/1999/xlink" width="500" zoomAndPan="magnify" viewBox="0 0 375 374.999991" height="500" preserveAspectRatio="xMidYMid meet" version="1.0"><defs><clipPath id="31f56932e5"><path d="M 93.410156 37.5 L 281.660156 37.5 L 281.660156 337.5 L 93.410156 337.5 Z M 93.410156 37.5 " clip-rule="nonzero"/></clipPath></defs><rect x="-37.5" width="450" fill="#ffffff" y="-37.499999" height="449.999989" fill-opacity="1"/><rect x="-37.5" width="450" fill="#ffffff" y="-37.499999" height="449.999989" fill-opacity="1"/><rect x="-37.5" width="450" fill="#ffffff" y="-37.499999" height="449.999989" fill-opacity="1"/><g clip-path="url(#31f56932e5)"><path fill="#25282e" d="M 227.636719 108.925781 C 182.582031 161.363281 139.257812 270.3125 111.378906 285.976562 C 111.21875 286.808594 111.054688 287.628906 110.90625 288.445312 C 109.542969 295.816406 108.550781 302.664062 107.757812 308.714844 C 106.953125 314.746094 106.1875 320 105.5625 324.285156 C 104.945312 328.558594 104.210938 331.808594 103.613281 333.972656 C 103.027344 336.140625 102.574219 337.226562 102.574219 337.226562 C 102.488281 337.40625 102.261719 337.433594 102.054688 337.273438 C 101.929688 337.167969 101.835938 337.019531 101.796875 336.875 C 101.796875 336.875 101.484375 335.449219 101.230469 332.894531 C 100.976562 330.351562 100.757812 326.675781 100.984375 322.222656 C 101.210938 317.769531 101.617188 312.363281 102.46875 306.339844 C 103.320312 300.328125 104.503906 293.519531 105.929688 286.203125 C 112.902344 250.476562 125.042969 215.375 141.40625 182.722656 C 150.132812 165.308594 160.378906 148.015625 171.621094 131.820312 C 176.796875 124.371094 182.421875 116.929688 188.183594 109.746094 C 190.925781 106.324219 193.761719 102.96875 196.523438 99.867188 C 199.3125 96.738281 202.179688 93.742188 204.929688 90.941406 C 206.300781 89.542969 207.703125 88.171875 209.082031 86.859375 C 210.453125 85.535156 211.796875 84.25 213.160156 83.03125 C 215.863281 80.589844 218.511719 78.273438 221.046875 76.167969 C 226.117188 71.941406 230.789062 68.394531 234.75 65.585938 C 242.675781 59.960938 247.734375 57.078125 247.734375 57.078125 C 247.734375 57.078125 246.421875 57.757812 244.054688 59.113281 C 241.703125 60.464844 238.269531 62.503906 234.15625 65.226562 C 230.03125 67.949219 225.105469 71.382812 219.84375 75.515625 C 217.214844 77.574219 214.472656 79.851562 211.644531 82.246094 C 210.238281 83.445312 208.847656 84.722656 207.410156 86.015625 C 205.980469 87.3125 204.523438 88.664062 203.085938 90.042969 C 200.203125 92.785156 197.261719 95.78125 194.367188 98.902344 C 192.9375 100.433594 191.511719 102.042969 190.0625 103.667969 L 188.976562 104.886719 L 187.878906 106.152344 C 187.171875 106.984375 186.46875 107.828125 185.761719 108.6875 C 182.921875 112.089844 180.046875 115.617188 177.238281 119.277344 C 175.832031 121.109375 174.402344 122.964844 173.003906 124.855469 C 171.613281 126.734375 170.230469 128.671875 168.859375 130.621094 C 166.109375 134.515625 163.355469 138.515625 160.699219 142.597656 C 158.042969 146.671875 155.402344 150.890625 152.886719 155.144531 C 147.78125 163.757812 142.871094 172.558594 138.351562 181.398438 C 129.460938 198.800781 121.601562 217.027344 115.359375 235.304688 C 112.484375 243.707031 109.835938 252.378906 107.558594 261.046875 C 106.140625 266.453125 104.882812 271.710938 103.773438 276.738281 C 97.21875 260.007812 90.742188 240.257812 94.457031 222.644531 C 99.082031 229.574219 102.855469 238.40625 104.105469 246.335938 C 101.070312 137.296875 176.824219 65.730469 281.621094 37.632812 C 261.769531 53.902344 250.554688 78.472656 235.78125 98.769531 C 233.304688 102.175781 229.40625 104.527344 224.914062 105.40625 C 217.621094 106.835938 210.1875 109.285156 203.964844 112.261719 C 211.464844 110.285156 219.609375 109.007812 227.601562 108.941406 Z M 227.636719 108.925781 " fill-opacity="1" fill-rule="evenodd"/></g></svg>